<mxfile host="app.diagrams.net" agent="Mozilla/5.0 (Windows NT 10.0; Win64; x64) AppleWebKit/537.36 (KHTML, like Gecko) Chrome/136.0.0.0 Safari/537.36" version="27.0.3">
  <diagram name="Raft协议在网络分区场景下的行为" id="9_cvzTFHPjwt-u4N8Jex">
    <mxGraphModel dx="1140" dy="680" grid="1" gridSize="10" guides="1" tooltips="1" connect="1" arrows="1" fold="1" page="1" pageScale="1" pageWidth="850" pageHeight="1100" math="0" shadow="0">
      <root>
        <mxCell id="0" />
        <mxCell id="1" parent="0" />
        <mxCell id="JRd8exp3etI0ZSEt-EbP-2" value="" style="endArrow=none;dashed=1;html=1;dashPattern=1 3;strokeWidth=3;fontSize=14;fillColor=#f8cecc;strokeColor=#b85450;" edge="1" parent="1">
          <mxGeometry width="50" height="50" relative="1" as="geometry">
            <mxPoint x="425" y="590" as="sourcePoint" />
            <mxPoint x="425" y="90" as="targetPoint" />
          </mxGeometry>
        </mxCell>
        <mxCell id="JRd8exp3etI0ZSEt-EbP-3" value="多数派分区" style="text;html=1;strokeColor=none;fillColor=none;align=center;verticalAlign=middle;whiteSpace=wrap;rounded=0;fontSize=16;fontStyle=1;fontColor=#006600;" vertex="1" parent="1">
          <mxGeometry x="200" y="90" width="150" height="30" as="geometry" />
        </mxCell>
        <mxCell id="JRd8exp3etI0ZSEt-EbP-4" value="少数派分区" style="text;html=1;strokeColor=none;fillColor=none;align=center;verticalAlign=middle;whiteSpace=wrap;rounded=0;fontSize=16;fontStyle=1;fontColor=#990000;" vertex="1" parent="1">
          <mxGeometry x="500" y="90" width="150" height="30" as="geometry" />
        </mxCell>
        <mxCell id="JRd8exp3etI0ZSEt-EbP-5" value="网络分区" style="text;html=1;strokeColor=none;fillColor=none;align=center;verticalAlign=middle;whiteSpace=wrap;rounded=0;fontSize=14;fontColor=#B85450;fontStyle=1" vertex="1" parent="1">
          <mxGeometry x="425" y="60" width="90" height="30" as="geometry" />
        </mxCell>
        <mxCell id="JRd8exp3etI0ZSEt-EbP-6" value="Server 1&#xa;(新选出的Leader)" style="ellipse;whiteSpace=wrap;html=1;aspect=fixed;fillColor=#d5e8d4;strokeColor=#82b366;fontSize=14;fontStyle=1" vertex="1" parent="1">
          <mxGeometry x="140" y="150" width="120" height="120" as="geometry" />
        </mxCell>
        <mxCell id="JRd8exp3etI0ZSEt-EbP-7" value="Server 2&#xa;(Follower)" style="ellipse;whiteSpace=wrap;html=1;aspect=fixed;fillColor=#d5e8d4;strokeColor=#82b366;fontSize=14;" vertex="1" parent="1">
          <mxGeometry x="290" y="180" width="100" height="100" as="geometry" />
        </mxCell>
        <mxCell id="JRd8exp3etI0ZSEt-EbP-8" value="Server 3&#xa;(Follower)" style="ellipse;whiteSpace=wrap;html=1;aspect=fixed;fillColor=#d5e8d4;strokeColor=#82b366;fontSize=14;" vertex="1" parent="1">
          <mxGeometry x="260" y="320" width="100" height="100" as="geometry" />
        </mxCell>
        <mxCell id="JRd8exp3etI0ZSEt-EbP-9" value="Server 4&#xa;(原Leader,&#xa;变为Follower)" style="ellipse;whiteSpace=wrap;html=1;aspect=fixed;fillColor=#f8cecc;strokeColor=#b85450;fontSize=14;" vertex="1" parent="1">
          <mxGeometry x="490" y="150" width="120" height="120" as="geometry" />
        </mxCell>
        <mxCell id="JRd8exp3etI0ZSEt-EbP-10" value="Server 5&#xa;(Follower)" style="ellipse;whiteSpace=wrap;html=1;aspect=fixed;fillColor=#f8cecc;strokeColor=#b85450;fontSize=14;" vertex="1" parent="1">
          <mxGeometry x="660" y="250" width="100" height="100" as="geometry" />
        </mxCell>
        <mxCell id="JRd8exp3etI0ZSEt-EbP-15" value="客户端" style="shape=umlActor;verticalLabelPosition=bottom;verticalAlign=top;html=1;outlineConnect=0;fontSize=14;" vertex="1" parent="1">
          <mxGeometry x="185" y="450" width="30" height="60" as="geometry" />
        </mxCell>
        <mxCell id="JRd8exp3etI0ZSEt-EbP-16" value="客户端" style="shape=umlActor;verticalLabelPosition=bottom;verticalAlign=top;html=1;outlineConnect=0;fontSize=14;" vertex="1" parent="1">
          <mxGeometry x="535" y="460" width="30" height="60" as="geometry" />
        </mxCell>
        <mxCell id="JRd8exp3etI0ZSEt-EbP-17" value="写请求成功" style="endArrow=classic;html=1;rounded=0;fontSize=14;fontColor=#006600;strokeColor=#82b366;strokeWidth=2;entryX=0.5;entryY=1;entryDx=0;entryDy=0;" edge="1" parent="1" source="JRd8exp3etI0ZSEt-EbP-15" target="JRd8exp3etI0ZSEt-EbP-6">
          <mxGeometry x="-0.2427" y="77" width="50" height="50" relative="1" as="geometry">
            <mxPoint x="230" y="450" as="sourcePoint" />
            <mxPoint x="280" y="400" as="targetPoint" />
            <mxPoint as="offset" />
          </mxGeometry>
        </mxCell>
        <mxCell id="JRd8exp3etI0ZSEt-EbP-18" value="写请求被拒绝" style="endArrow=classic;html=1;rounded=0;fontSize=14;fontColor=#990000;strokeColor=#b85450;strokeWidth=2;dashed=1;entryX=0.5;entryY=1;entryDx=0;entryDy=0;" edge="1" parent="1" source="JRd8exp3etI0ZSEt-EbP-16" target="JRd8exp3etI0ZSEt-EbP-9">
          <mxGeometry x="-0.0678" y="-10" width="50" height="50" relative="1" as="geometry">
            <mxPoint x="215" y="460" as="sourcePoint" />
            <mxPoint x="220" y="280" as="targetPoint" />
            <mxPoint as="offset" />
          </mxGeometry>
        </mxCell>
        <mxCell id="JRd8exp3etI0ZSEt-EbP-19" value="多数派状态：&#xa;• 能选出新Leader&#xa;• 能够提交新日志&#xa;• 为客户端提供读写服务" style="rounded=1;whiteSpace=wrap;html=1;fontSize=14;fillColor=#d5e8d4;strokeColor=#82b366;align=left;spacingLeft=5;" vertex="1" parent="1">
          <mxGeometry x="110" y="530" width="210" height="80" as="geometry" />
        </mxCell>
        <mxCell id="JRd8exp3etI0ZSEt-EbP-20" value="少数派状态：&#xa;• 无法选出新Leader&#xa;• 无法提交新日志&#xa;• 最多提供只读服务" style="rounded=1;whiteSpace=wrap;html=1;fontSize=14;fillColor=#f8cecc;strokeColor=#b85450;align=left;spacingLeft=5;" vertex="1" parent="1">
          <mxGeometry x="500" y="550" width="210" height="80" as="geometry" />
        </mxCell>
        <mxCell id="JRd8exp3etI0ZSEt-EbP-21" value="网络恢复后" style="text;html=1;strokeColor=none;fillColor=none;align=center;verticalAlign=middle;whiteSpace=wrap;rounded=0;fontSize=16;fontStyle=1" vertex="1" parent="1">
          <mxGeometry x="350" y="630" width="100" height="30" as="geometry" />
        </mxCell>
        <mxCell id="JRd8exp3etI0ZSEt-EbP-22" value="网络恢复后，少数派节点将与多数派Leader同步状态，&#xa;少数派中原Leader降级为Follower并接受新Leader的日志复制" style="rounded=1;whiteSpace=wrap;html=1;fontSize=14;fillColor=#ffe6cc;strokeColor=#d79b00;align=center;" vertex="1" parent="1">
          <mxGeometry x="150" y="670" width="500" height="60" as="geometry" />
        </mxCell>
      </root>
    </mxGraphModel>
  </diagram>
</mxfile>
